{"title":"American Ninja Warrior - Season 5","uid":13114694,"size":15052761347,"categoryP":"video","categoryS":"tv_shows","magnet":"?xt=urn:btih:88f1498b1a4b06bdaf70ffecedc84f2ee0209b8b&amp;dn=American+Ninja+Warrior+-+Season+5&amp;tr=udp%3A%2F%2Ftracker.leechers-paradise.org%3A6969&amp;tr=udp%3A%2F%2Fzer0day.ch%3A1337&amp;tr=udp%3A%2F%2Fopen.demonii.com%3A1337&amp;tr=udp%3A%2F%2Ftracker.coppersurfer.tk%3A6969&amp;tr=udp%3A%2F%2Fexodus.desync.com%3A6969","seeders":5,"leechers":4,"uploader":"orangebirds","files":25,"time":1451549639,"description":"American Ninja Warrior - Season 5\r\n\r\nVideo Quality : PDTV, except for USA vs Japan, which is 720p HDTV 59.97 fps\r\n\r\nAudio : AAC 2.0 (SBS 2), AC3 5.1 (NBC)\r\n\r\nNote from W4F : This is the 'international' broadcast, there are no double episodes etc, accordingly it does not match up with TVrage. Here is the actual episode order :\r\n\r\n1    Venice Beach Qualifying (1)\r\n2    Venice Beach Qualifying (2)\r\n3    Venice Beach Qualifying (3)\r\n4    Baltimore Qualifying (1)\r\n5    Baltimore Qualifying (2)\r\n6    Miami Qualifying (1)\r\n7    Miami Qualifying (2)\r\n8    Denver Qualifying (1)\r\n9    Denver Qualifying (2)\r\n10    Venice Beach Finals (1)\r\n11    Venice Beach Finals (2)\r\n12    Baltimore Finals (1)\r\n13    Baltimore Finals (2)\r\n14    Miami Finals (1)\r\n15    Miami Finals (2)\r\n16    Denver Finals (1)\r\n17    Denver Finals (2)\r\n18    Las Vegas National Finals û Stage 1 (1)\r\n19    Las Vegas National Finals û Stage 1 (2)\r\n20    Las Vegas National Finals û Stage 1 (3)\r\n21    Las Vegas National Finals û Stage 1 (4)\r\n22    Las Vegas National Finals û Stage 1 (5)\r\n23    Las Vegas National Finals û Stage 2\r\n24    Las Vegas National Finals û Stages 2 &amp; 3\r\n\r\n\r\nPlease help me seed, and don't forget to leave a comment!\r\nGeneral\r\nComplete name                            : american.ninja.warrior.s05e01.pdtv.x264-w4f.mp4\r\nFormat                                   : MPEG-4\r\nFormat profile                           : Base Media\r\nCodec ID                                 : isom\r\nFile size                                : 450 MiB\r\nDuration                                 : 41mn 8s\r\nOverall bit rate mode                    : Variable\r\nOverall bit rate                         : 1 531 Kbps\r\nEncoded date                             : UTC 2015-05-09 00:17:09\r\nTagged date                              : UTC 2015-05-09 00:17:09\r\n\r\nVideo\r\nID                                       : 1\r\nFormat                                   : AVC\r\nFormat/Info                              : Advanced Video Codec\r\nFormat profile                           :   \r\nFormat settings, CABAC                   : Yes\r\nFormat settings, ReFrames                : 5 frames\r\nCodec ID                                 : avc1\r\nCodec ID/Info                            : Advanced Video Coding\r\nDuration                                 : 41mn 8s\r\nBit rate                                 : 1 412 Kbps\r\nMaximum bit rate                         : 5 532 Kbps\r\nWidth                                    : 716 pixels\r\nHeight                                   : 404 pixels\r\nDisplay aspect ratio                     : 16:9\r\nFrame rate mode                          : Constant\r\nFrame rate                               : 25.000 fps\r\nColor space                              : YUV\r\nChroma subsampling                       : 4:2:0\r\nBit depth                                : 8 bits\r\nScan type                                : Progressive\r\nBits/(Pixel*Frame)                       : 0.195\r\nStream size                              : 416 MiB (92%)\r\nTitle                                    : Video\r\nWriting library                          : x264 core 146 r2538 121396c\r\nEncoding settings                        : cabac=1 / ref=5 / deblock=1:0:0 / analyse=0x3:0x113 / me=umh / subme=8 / psy=1 / psy_rd=1.00:0.00 / mixed_ref=1 / me_range=16 / chroma_me=1 / trellis=1 / 8x8dct=1 / cqm=0 / deadzone=21,11 / fast_pskip=1 / chroma_qp_offset=-2 / threads=12 / lookahead_threads=2 / sliced_threads=0 / nr=0 / decimate=1 / interlaced=0 / bluray_compat=0 / constrained_intra=0 / bframes=3 / b_pyramid=2 / b_adapt=2 / b_bias=0 / direct=3 / weightb=1 / open_gop=0 / weightp=2 / keyint=250 / keyint_min=25 / scenecut=40 / intra_refresh=0 / rc_lookahead=50 / rc=crf / mbtree=1 / crf=23.0 / qcomp=0.60 / qpmin=0 / qpmax=69 / qpstep=4 / ip_ratio=1.40 / aq=1:1.00\r\nEncoded date                             : UTC 2015-05-09 00:17:09\r\nTagged date                              : UTC 2015-05-09 00:17:12\r\n\r\nAudio\r\nID                                       : 2\r\nFormat                                   : AAC\r\nFormat/Info                              : Advanced Audio Codec\r\nFormat profile                           : LC\r\nCodec ID                                 : 40\r\nDuration                                 : 41mn 8s\r\nBit rate mode                            : Variable\r\nBit rate                                 : 114 Kbps\r\nMaximum bit rate                         : 145 Kbps\r\nChannel(s)                               : 2 channels\r\nChannel positions                        : Front: L R\r\nSampling rate                            : 48.0 KHz\r\nCompression mode                         : Lossy\r\nStream size                              : 33.6 MiB (7%)\r\nEncoded date                             : UTC 2015-05-09 00:17:11\r\nTagged date                              : UTC 2015-05-09 00:17:12","torrent":{"xt":"urn:btih:88f1498b1a4b06bdaf70ffecedc84f2ee0209b8b","amp;dn":"American+Ninja+Warrior+-+Season+5","amp;tr":["udp%3A%2F%2Ftracker.leechers-paradise.org%3A6969","udp%3A%2F%2Fzer0day.ch%3A1337","udp%3A%2F%2Fopen.demonii.com%3A1337","udp%3A%2F%2Ftracker.coppersurfer.tk%3A6969","udp%3A%2F%2Fexodus.desync.com%3A6969"],"infoHash":"88f1498b1a4b06bdaf70ffecedc84f2ee0209b8b","infoHashBuffer":{"type":"Buffer","data":[136,241,73,139,26,75,6,189,175,112,255,236,237,200,79,46,224,32,155,139]},"announce":[],"urlList":[]}}